<?xml version="1.0" encoding="UTF-8"?>
<svg id="Layer_1" xmlns="http://www.w3.org/2000/svg" version="1.1" viewBox="0 0 1000 1000">
  <!-- Generator: Adobe Illustrator 29.4.0, SVG Export Plug-In . SVG Version: 2.1.0 Build 152)  -->
  <defs>
    <style>
      .st0 {
        fill: #231f20;
      }

      .st1 {
        fill: #fff;
      }
    </style>
  </defs>
  <rect class="st0" x="-125.64" y="-98.83" width="1222.47" height="1271.49"/>
  <g>
    <path class="st1" d="M343.6,648.13c-4.26,227.83,316.43,227.82,312.82,0,36.64,0,73.27,0,109.91,0,12.88,351.12-545.93,352.77-532.65,0,18.68.22,37.57.33,56.65.32,17.93,0,35.68-.12,53.26-.33Z"/>
    <g>
      <path class="st1" d="M452.28,133.74c413.53-54.75,421.27,546.8-5.79,490.24-280.27-37.12-285.94-451.62,5.79-490.24ZM657.04,379.84c0-84.9-70.31-153.73-157.04-153.73s-157.04,68.83-157.04,153.73,70.31,153.73,157.04,153.73,157.04-68.83,157.04-153.73Z"/>
      <ellipse class="st1" cx="714.97" cy="138.39" rx="51.56" ry="50.47"/>
    </g>
  </g>
</svg>