<svg width="11" height="8" viewBox="0 0 11 8" fill="none" xmlns="http://www.w3.org/2000/svg">
<path d="M10.9551 -0.000133276V0.851867H9.69514V7.46387H8.77114C8.53914 6.99187 8.25114 6.57987 7.90714 6.22787C7.56314 5.86787 7.19514 5.55987 6.80314 5.30387L7.10314 4.51187C7.40714 4.68787 7.72314 4.92787 8.05114 5.23187C8.37914 5.53587 8.63114 5.84387 8.80714 6.15587C8.79914 6.03587 8.79114 5.92387 8.78314 5.81987C8.78314 5.71587 8.77914 5.60787 8.77114 5.49587C8.77114 5.38387 8.77114 5.26387 8.77114 5.13587V0.851867H-0.000859383V-0.000133276H10.9551ZM4.63114 6.37187C4.08714 6.37187 3.56714 6.24387 3.07114 5.98787C2.57514 5.73187 2.10714 5.29987 1.66714 4.69187C1.23514 4.07587 0.835141 3.23187 0.467141 2.15987L1.34314 1.87187C1.63114 2.70387 1.93114 3.38787 2.24314 3.92387C2.56314 4.45187 2.91914 4.83987 3.31114 5.08787C3.70314 5.33587 4.15114 5.45987 4.65514 5.45987C5.09514 5.45987 5.44714 5.39187 5.71114 5.25587C5.98314 5.11187 6.17914 4.91987 6.29914 4.67987C6.41914 4.43187 6.47914 4.15987 6.47914 3.86387C6.47914 3.39987 6.35114 3.02387 6.09514 2.73587C5.84714 2.44787 5.53514 2.30387 5.15914 2.30387C4.89514 2.30387 4.69514 2.36387 4.55914 2.48387C4.42314 2.59587 4.35514 2.76787 4.35514 2.99987C4.35514 3.05587 4.36314 3.13187 4.37914 3.22787C4.39514 3.32387 4.41914 3.41187 4.45114 3.49187L3.53914 3.67187C3.48314 3.50387 3.43914 3.35187 3.40714 3.21587C3.38314 3.07187 3.37114 2.93587 3.37114 2.80787C3.37114 2.51187 3.45114 2.26387 3.61114 2.06387C3.77914 1.86387 3.99114 1.71587 4.24714 1.61987C4.51114 1.51587 4.78714 1.46387 5.07514 1.46387C5.54714 1.46387 5.95514 1.57187 6.29914 1.78787C6.64314 1.99587 6.91114 2.28387 7.10314 2.65187C7.29514 3.01987 7.39114 3.44787 7.39114 3.93587C7.39114 4.36787 7.29114 4.77187 7.09114 5.14787C6.89114 5.51587 6.58714 5.81187 6.17914 6.03587C5.77114 6.25987 5.25514 6.37187 4.63114 6.37187ZM4.24714 1.88387C4.20714 1.62787 4.08714 1.40387 3.88714 1.21187C3.69514 1.01187 3.41114 0.871867 3.03514 0.791867L3.32314 0.251867L3.86314 0.395867C4.31914 0.571867 4.64714 0.771867 4.84714 0.995867C5.04714 1.21987 5.16314 1.50387 5.19514 1.84787L4.24714 1.88387Z" fill="black"/>
</svg>
