<svg width="20" height="18" viewBox="0 0 20 18" fill="none" xmlns="http://www.w3.org/2000/svg">
    <path d="M3.48494 17.1668H16.2587M9.47217 0.986172C9.51155 0.914645 9.56941 0.854998 9.63971 0.813456C9.71 0.771914 9.79016 0.75 9.87181 0.75C9.95346 0.75 10.0336 0.771914 10.1039 0.813456C10.1742 0.854998 10.2321 0.914645 10.2714 0.986172L12.9649 6.09931C13.0291 6.21771 13.1188 6.32042 13.2274 6.40006C13.336 6.47971 13.4609 6.53431 13.5932 6.55995C13.7254 6.5856 13.8617 6.58165 13.9922 6.54838C14.1227 6.51512 14.2443 6.45337 14.3481 6.36756L18.2505 3.02449C18.3254 2.96357 18.4177 2.92798 18.5141 2.92285C18.6105 2.91773 18.7061 2.94333 18.787 2.99598C18.868 3.04862 18.9302 3.1256 18.9646 3.21582C18.999 3.30604 19.0039 3.40485 18.9786 3.49804L16.3928 12.8466C16.34 13.0379 16.2263 13.2068 16.0689 13.3276C15.9115 13.4485 15.719 13.5147 15.5205 13.5163H4.22399C4.02539 13.5149 3.83267 13.4488 3.67508 13.3279C3.51749 13.207 3.40364 13.038 3.35082 12.8466L0.765962 3.49895C0.740643 3.40576 0.745544 3.30695 0.779959 3.21673C0.814375 3.12651 0.87653 3.04954 0.957478 2.99689C1.03843 2.94424 1.13399 2.91864 1.23042 2.92377C1.32684 2.92889 1.41915 2.96448 1.49406 3.02541L5.39553 6.36848C5.49936 6.45428 5.6209 6.51603 5.75142 6.54929C5.88195 6.58256 6.01822 6.58651 6.15045 6.56087C6.28269 6.53522 6.4076 6.48062 6.51623 6.40097C6.62486 6.32133 6.71451 6.21862 6.77874 6.10023L9.47217 0.986172Z" stroke="white" stroke-width="1.5" stroke-linecap="round" stroke-linejoin="round"/>
</svg>
