<svg width="11" height="8" viewBox="0 0 11 8" fill="none" xmlns="http://www.w3.org/2000/svg">
<path d="M3.74491 6.00033C3.37691 6.00033 3.02891 5.94833 2.70091 5.84433C2.37291 5.74033 2.06891 5.56433 1.78891 5.31633C1.50891 5.06033 1.25691 4.72033 1.03291 4.29633L1.28491 3.60033C1.73291 3.53633 2.11291 3.36833 2.42491 3.09633C2.73691 2.81633 2.89291 2.47633 2.89291 2.07633C2.89291 1.69233 2.78091 1.39633 2.55691 1.18833C2.34091 0.980328 1.99691 0.876328 1.52491 0.876328C1.34891 0.876328 1.14891 0.900328 0.924906 0.948328C0.708906 0.988328 0.508906 1.05233 0.324906 1.14033L0.000906266 0.324328C0.192906 0.236328 0.428906 0.160328 0.708906 0.0963278C0.988906 0.0323277 1.27291 0.000327587 1.56091 0.000327587C2.04891 0.000327587 2.46091 0.0843277 2.79691 0.252328C3.14091 0.412328 3.40091 0.648328 3.57691 0.960328C3.76091 1.27233 3.85291 1.65233 3.85291 2.10033C3.85291 2.54033 3.72091 2.93633 3.45691 3.28833C3.20091 3.63233 2.86091 3.90433 2.43691 4.10433C2.01291 4.29633 1.54491 4.39233 1.03291 4.39233C0.816906 4.39233 0.636906 4.36433 0.492906 4.30833C0.348906 4.25233 0.236906 4.17233 0.156906 4.06833C0.0849063 3.95633 0.0489063 3.82433 0.0489063 3.67233C0.0489063 3.51233 0.104906 3.37633 0.216906 3.26433C0.336906 3.14433 0.516906 3.08433 0.756906 3.08433C1.00491 3.08433 1.20891 3.13633 1.36891 3.24033C1.52891 3.33633 1.69691 3.48833 1.87291 3.69633L2.04091 4.16433C2.18491 4.47633 2.40091 4.71633 2.68891 4.88433C2.97691 5.05233 3.30491 5.13633 3.67291 5.13633C3.97691 5.13633 4.23691 5.09233 4.45291 5.00433C4.66891 4.91633 4.84491 4.79633 4.98091 4.64433C5.18091 4.42033 5.30891 4.16433 5.36491 3.87633C5.42891 3.58833 5.46091 3.22433 5.46091 2.78433V1.87233L6.42091 1.99233V3.04833C6.42091 3.70433 6.30491 4.25233 6.07291 4.69233C5.84891 5.13233 5.53291 5.46033 5.12491 5.67633C4.72491 5.89233 4.26491 6.00033 3.74491 6.00033ZM7.11691 4.50033C6.91691 4.50033 6.72091 4.46433 6.52891 4.39233C6.33691 4.32033 6.16091 4.19233 6.00091 4.00833C5.84091 3.82433 5.70491 3.56833 5.59291 3.24033L6.28891 2.96433C6.35291 3.22033 6.45691 3.39633 6.60091 3.49233C6.74491 3.58833 6.91291 3.63633 7.10491 3.63633C7.39291 3.63633 7.64091 3.56033 7.84891 3.40833C8.05691 3.24833 8.24891 3.03233 8.42491 2.76033L8.62891 3.74433C8.42891 3.98433 8.21291 4.17233 7.98091 4.30833C7.75691 4.43633 7.46891 4.50033 7.11691 4.50033ZM9.90091 7.23633C9.55691 7.23633 9.26891 7.20033 9.03691 7.12833C8.81291 7.04833 8.63291 6.93633 8.49691 6.79233C8.36891 6.65633 8.27291 6.48833 8.20891 6.28833C8.15291 6.08833 8.12491 5.81233 8.12491 5.46033V0.000327587L9.08491 0.132328V5.41233C9.08491 5.62833 9.09691 5.78833 9.12091 5.89233C9.14491 5.98833 9.18091 6.06833 9.22891 6.13233C9.31691 6.24433 9.44491 6.31233 9.61291 6.33633C9.78891 6.35233 9.96091 6.36033 10.1289 6.36033L10.0329 7.23633H9.90091Z" fill="black"/>
</svg>
