<svg width="9" height="8" viewBox="0 0 9 8" fill="none" xmlns="http://www.w3.org/2000/svg">
<path d="M5.35234 4.99198C5.35234 6.16798 4.48834 6.83998 3.31234 6.83998C1.88434 6.83998 0.924344 5.99998 0.000343762 3.45598L0.852344 3.10798C1.50034 4.97998 2.18434 5.96398 3.22834 5.96398C3.93634 5.96398 4.40434 5.56798 4.40434 4.88398C4.40434 4.33198 4.03234 3.89998 3.56434 3.56398C3.26434 3.64798 2.90434 3.70798 2.49634 3.74398L2.30434 2.89198C3.80434 2.69998 4.20034 2.37598 4.20034 1.71598C4.20034 1.18798 3.85234 0.851984 3.20434 0.851984C2.66434 0.851984 2.14834 1.01998 1.63234 1.33198L1.32034 0.491984C1.87234 0.179984 2.49634 -1.5974e-05 3.24034 -1.5974e-05C4.60834 -1.5974e-05 5.16034 0.803984 5.16034 1.72798C5.16034 2.35198 4.93234 2.85598 4.39234 3.20398L4.41634 3.22798C4.80034 3.32398 5.22034 3.35998 5.59234 3.35998C5.96434 3.35998 6.36034 3.32398 6.78034 3.21598V0.971984H5.90434V0.119984H9.00034V0.971984H7.75234V7.58398H6.78034V4.10398C6.45634 4.18798 6.12034 4.21198 5.78434 4.21198C5.59234 4.21198 5.36434 4.19998 5.13634 4.16398C5.28034 4.41598 5.35234 4.70398 5.35234 4.99198Z" fill="black"/>
</svg>
