<svg width="10" height="7" viewBox="0 0 10 7" fill="none" xmlns="http://www.w3.org/2000/svg">
<path d="M4.60864 5.92807C5.48064 5.92807 6.20064 5.82007 6.76864 5.60407C7.34464 5.38807 7.77264 5.05207 8.05264 4.59607C8.34064 4.13207 8.48464 3.54007 8.48464 2.82007C8.48464 2.46007 8.43664 2.13607 8.34064 1.84807C8.24464 1.55207 8.10064 1.32007 7.90864 1.15207C7.71664 0.97607 7.47264 0.88807 7.17664 0.88807C6.99264 0.88807 6.81664 0.95607 6.64864 1.09207C6.48864 1.22007 6.40864 1.43207 6.40864 1.72807C6.40864 1.92807 6.46464 2.11207 6.57664 2.28007C6.68864 2.44007 6.84064 2.58407 7.03264 2.71207C7.23264 2.83207 7.45664 2.93207 7.70464 3.01207V3.86407H4.03264V2.95207H6.18064C6.03664 2.83207 5.91264 2.70007 5.80864 2.55607C5.70464 2.41207 5.62064 2.25607 5.55664 2.08807C5.50064 1.91207 5.47264 1.71607 5.47264 1.50007C5.47264 1.25207 5.53264 1.01607 5.65264 0.79207C5.78064 0.56007 5.96864 0.37207 6.21664 0.22807C6.47264 0.0760701 6.78864 7.00951e-05 7.16464 7.00951e-05C7.65264 7.00951e-05 8.06864 0.12007 8.41264 0.36007C8.75664 0.60007 9.01664 0.93207 9.19264 1.35607C9.37664 1.77207 9.46864 2.25207 9.46864 2.79607C9.46864 3.75607 9.27664 4.54007 8.89264 5.14807C8.50864 5.74807 7.95264 6.19207 7.22464 6.48007C6.50464 6.76007 5.64064 6.90007 4.63264 6.90007C3.60864 6.90007 2.75264 6.73607 2.06464 6.40807C1.37664 6.07207 0.860641 5.61207 0.516641 5.02807C0.172641 4.44407 0.000640631 3.77607 0.000640631 3.02407C0.000640631 2.37607 0.108641 1.82807 0.324641 1.38007C0.540641 0.93207 0.832641 0.59207 1.20064 0.36007C1.57664 0.12007 1.99664 7.00951e-05 2.46064 7.00951e-05C2.81264 7.00951e-05 3.11664 0.06407 3.37264 0.19207C3.62864 0.32007 3.82464 0.50407 3.96064 0.74407C4.10464 0.98407 4.17664 1.27207 4.17664 1.60807C4.17664 1.95207 4.09664 2.26007 3.93664 2.53207C3.78464 2.80407 3.55264 3.02007 3.24064 3.18007C2.93664 3.34007 2.55664 3.42007 2.10064 3.42007C1.81264 3.42007 1.55264 3.37607 1.32064 3.28807C1.08864 3.20007 0.888641 3.09207 0.720641 2.96407C0.560641 2.83607 0.424641 2.70807 0.312641 2.58007L0.600641 1.78807C0.672641 1.88407 0.772641 1.99607 0.900641 2.12407C1.02864 2.24407 1.18464 2.35207 1.36864 2.44807C1.56064 2.53607 1.78064 2.58007 2.02864 2.58007C2.45264 2.58007 2.76064 2.49207 2.95264 2.31607C3.14464 2.14007 3.24064 1.91607 3.24064 1.64407C3.24064 1.38807 3.16864 1.19207 3.02464 1.05607C2.88064 0.91207 2.69264 0.84007 2.46064 0.84007C1.98864 0.84007 1.62064 1.02807 1.35664 1.40407C1.09264 1.77207 0.960641 2.29607 0.960641 2.97607V3.02407C0.960641 3.39207 1.02864 3.75207 1.16464 4.10407C1.30064 4.44807 1.51264 4.76007 1.80064 5.04007C2.08864 5.31207 2.46464 5.52807 2.92864 5.68807C3.39264 5.84807 3.95264 5.92807 4.60864 5.92807Z" fill="black"/>
</svg>
