<svg width="17" height="7" viewBox="0 0 17 7" fill="none" xmlns="http://www.w3.org/2000/svg">
<path d="M3.93525 -1.5974e-05C4.28725 -1.5974e-05 4.65125 0.0319841 5.02725 0.0959842C5.41125 0.159984 5.76325 0.259984 6.08325 0.395984C6.12325 0.411984 6.17125 0.443984 6.22725 0.491984C6.28325 0.531984 6.33125 0.559984 6.37125 0.575984C6.81125 0.687984 7.15125 0.839984 7.39125 1.03198C7.63125 1.22398 7.79925 1.43598 7.89525 1.66798C7.99925 1.89198 8.05125 2.12798 8.05125 2.37598C8.05125 2.56798 8.01925 2.74798 7.95525 2.91598C7.89125 3.08398 7.77925 3.23598 7.61925 3.37198C7.46725 3.50798 7.25925 3.63598 6.99525 3.75598L7.04325 3.71998C7.39525 3.83198 7.67125 4.01198 7.87125 4.25998C8.07925 4.50798 8.18325 4.80798 8.18325 5.15998C8.18325 5.47198 8.10325 5.76398 7.94325 6.03598C7.79125 6.30798 7.55125 6.52798 7.22325 6.69598C6.89525 6.85598 6.46325 6.93598 5.92725 6.93598C5.31925 6.93598 4.81125 6.80398 4.40325 6.53998C4.00325 6.27598 3.70325 5.91998 3.50325 5.47198C3.30325 5.02398 3.20325 4.52398 3.20325 3.97198C3.20325 3.52398 3.27125 3.09598 3.40725 2.68798C3.54325 2.27998 3.75125 1.89998 4.03125 1.54798C4.31925 1.19598 4.69125 0.883984 5.14725 0.611984C5.18725 0.587984 5.22725 0.563984 5.26725 0.539984C5.30725 0.515984 5.34725 0.491984 5.38725 0.467984C5.67525 0.323984 5.99525 0.211984 6.34725 0.131984C6.69925 0.0439839 7.10325 -1.5974e-05 7.55925 -1.5974e-05C8.10325 -1.5974e-05 8.55525 0.0679841 8.91525 0.203984C9.27525 0.339984 9.57525 0.519984 9.81525 0.743984C10.0633 0.959984 10.2753 1.19998 10.4513 1.46398L10.7633 3.82798V6.79198H9.71925V3.41998C9.71925 2.82798 9.67125 2.37998 9.57525 2.07598C9.47925 1.77198 9.33125 1.52798 9.13125 1.34398C8.95525 1.18398 8.73925 1.05598 8.48325 0.959984C8.22725 0.855984 7.87125 0.803984 7.41525 0.803984C7.19925 0.803984 6.99125 0.819984 6.79125 0.851984C6.59925 0.875984 6.42325 0.911984 6.26325 0.959984C5.88725 1.07198 5.56725 1.23998 5.30325 1.46398C5.03925 1.68798 4.82725 1.94398 4.66725 2.23198C4.50725 2.51998 4.39125 2.81198 4.31925 3.10798C4.24725 3.39598 4.21125 3.66798 4.21125 3.92398C4.21125 4.62798 4.35925 5.17198 4.65525 5.55598C4.95125 5.93998 5.37925 6.13198 5.93925 6.13198C6.35525 6.13198 6.66325 6.04798 6.86325 5.87998C7.07125 5.71198 7.17525 5.46398 7.17525 5.13598C7.17525 4.83998 7.05925 4.60798 6.82725 4.43998C6.60325 4.26398 6.24725 4.17598 5.75925 4.17598H5.53125V3.33598H5.69925C6.19525 3.33598 6.54325 3.24798 6.74325 3.07198C6.94325 2.89598 7.04325 2.65998 7.04325 2.36398C7.04325 1.98798 6.91125 1.68798 6.64725 1.46398C6.39125 1.23198 6.00725 1.07198 5.49525 0.983984C5.18325 0.903984 4.90725 0.859984 4.66725 0.851984C4.42725 0.835984 4.21125 0.827984 4.01925 0.827984C3.35525 0.827984 2.80325 0.947984 2.36325 1.18798C1.93125 1.41998 1.60725 1.73998 1.39125 2.14798C1.17525 2.54798 1.06725 3.00398 1.06725 3.51598C1.06725 3.93198 1.12725 4.30398 1.24725 4.63198C1.36725 4.95998 1.53525 5.24798 1.75125 5.49598C1.97525 5.74398 2.23525 5.95998 2.53125 6.14398L1.93125 6.89998C1.58725 6.69998 1.26725 6.44398 0.97125 6.13198C0.68325 5.81198 0.44725 5.43198 0.26325 4.99198C0.08725 4.54398 -0.00074999 4.03598 -0.00074999 3.46798C-0.00074999 2.97198 0.07925 2.51598 0.23925 2.09998C0.39925 1.67598 0.64325 1.30798 0.97125 0.995984C1.29925 0.683984 1.70725 0.439984 2.19525 0.263984C2.69125 0.0879841 3.27125 -1.5974e-05 3.93525 -1.5974e-05ZM14.4473 6.93598C13.9353 6.93598 13.5073 6.81998 13.1633 6.58798C12.8193 6.35598 12.5593 6.05198 12.3833 5.67598C12.2153 5.29198 12.1313 4.87998 12.1313 4.43998C12.1313 3.67998 12.3353 3.07598 12.7433 2.62798C13.1513 2.17198 13.6993 1.94398 14.3873 1.94398C14.8353 1.94398 15.2233 2.05998 15.5513 2.29198C15.8873 2.52398 16.1513 2.81998 16.3433 3.17998C16.5353 3.53998 16.6393 3.91998 16.6553 4.31998L16.3553 4.28398C16.2993 4.03598 16.1913 3.79998 16.0313 3.57598C15.8793 3.34398 15.6793 3.15598 15.4313 3.01198C15.1913 2.85998 14.9113 2.78398 14.5913 2.78398C14.0873 2.78398 13.7193 2.93598 13.4873 3.23998C13.2553 3.53598 13.1393 3.92798 13.1393 4.41598C13.1393 4.74398 13.1833 5.03598 13.2713 5.29198C13.3673 5.54798 13.5113 5.74798 13.7033 5.89198C13.8953 6.02798 14.1473 6.09598 14.4593 6.09598C14.7873 6.09598 15.0633 6.01998 15.2873 5.86798C15.5193 5.71598 15.6953 5.47198 15.8153 5.13598C15.9433 4.79998 16.0073 4.35998 16.0073 3.81598C16.0073 3.72798 15.9993 3.63598 15.9833 3.53998C15.9753 3.43598 15.9633 3.32798 15.9473 3.21598C15.9393 3.15198 15.9313 3.07998 15.9233 2.99998C15.9153 2.91998 15.9033 2.84398 15.8873 2.77198C15.8233 2.46798 15.6793 2.17198 15.4553 1.88398C15.2393 1.58798 14.9353 1.34398 14.5433 1.15198C14.1513 0.959984 13.6553 0.863984 13.0553 0.863984C12.7113 0.863984 12.3993 0.903984 12.1193 0.983984C11.8473 1.06398 11.6073 1.19598 11.3993 1.37998C11.2713 1.49998 11.1593 1.64398 11.0633 1.81198C10.9673 1.97198 10.8913 2.17198 10.8353 2.41198C10.7873 2.65198 10.7633 2.95598 10.7633 3.32398V4.34398L10.1393 1.34398C10.3393 1.08798 10.5673 0.859984 10.8233 0.659984C11.0793 0.451984 11.3873 0.291984 11.7473 0.179984C12.1073 0.059984 12.5433 -1.5974e-05 13.0553 -1.5974e-05C13.7113 -1.5974e-05 14.2833 0.095984 14.7713 0.287984C15.2673 0.479984 15.6793 0.751984 16.0073 1.10398C16.3433 1.44798 16.5913 1.85598 16.7513 2.32798C16.9193 2.79998 17.0033 3.31998 17.0033 3.88798C17.0033 4.59998 16.8913 5.18398 16.6673 5.63998C16.4433 6.08798 16.1393 6.41598 15.7553 6.62398C15.3713 6.83198 14.9353 6.93598 14.4473 6.93598Z" fill="black"/>
</svg>
