<svg width="13" height="9" viewBox="0 0 13 9" fill="none" xmlns="http://www.w3.org/2000/svg">
<path d="M3.50434 8.27999C2.72834 8.27999 2.08034 8.18399 1.56034 7.99199C1.04034 7.80799 0.648344 7.54799 0.384344 7.21199C0.128344 6.88399 0.000343762 6.50399 0.000343762 6.07199C0.000343762 5.87199 0.0443438 5.67599 0.132344 5.48399C0.220344 5.29199 0.356344 5.13199 0.540344 5.00399C0.644344 4.93199 0.756344 4.87199 0.876344 4.82399C0.996344 4.77599 1.15234 4.73999 1.34434 4.71599C1.54434 4.69199 1.80434 4.67999 2.12434 4.67999H11.0883L11.1243 5.54399H2.25634C2.00834 5.54399 1.81634 5.54799 1.68034 5.55599C1.55234 5.56399 1.45634 5.57999 1.39234 5.60399C1.32834 5.62799 1.26434 5.66399 1.20034 5.71199C1.08034 5.80799 1.02034 5.94399 1.02034 6.11999C1.02034 6.51199 1.23234 6.82399 1.65634 7.05599C2.08034 7.28799 2.72034 7.40399 3.57634 7.40399H3.78034C4.58834 7.40399 5.28034 7.30799 5.85634 7.11599C6.44034 6.93199 6.92034 6.67599 7.29634 6.34799C7.68034 6.01999 7.96834 5.64799 8.16034 5.23199L8.20834 5.00399C8.28034 4.80399 8.33234 4.60399 8.36434 4.40399C8.39634 4.19599 8.41234 3.98799 8.41234 3.77999C8.41234 3.31599 8.33234 2.87599 8.17234 2.45999C8.01234 2.04399 7.76434 1.69599 7.42834 1.41599C7.10034 1.12799 6.67634 0.943992 6.15634 0.863992C6.05234 0.847992 5.95234 0.839992 5.85634 0.839992C5.76834 0.831992 5.67234 0.827992 5.56834 0.827992C5.32034 0.827992 5.09234 0.871992 4.88434 0.959992C4.67634 1.04799 4.50834 1.17999 4.38034 1.35599C4.26034 1.53199 4.20034 1.75599 4.20034 2.02799C4.20034 2.32399 4.28834 2.57599 4.46434 2.78399C4.64834 2.98399 4.90434 3.08399 5.23234 3.08399C5.53634 3.08399 5.77634 2.99199 5.95234 2.80799C6.13634 2.61599 6.22834 2.34399 6.22834 1.99199C6.22834 1.72799 6.18434 1.49199 6.09634 1.28399C6.01634 1.06799 5.87234 0.863992 5.66434 0.671992L6.34834 0.467992C6.49234 0.587992 6.62434 0.727992 6.74434 0.887992C6.87234 1.04799 6.97234 1.22799 7.04434 1.42799C7.12434 1.61999 7.16434 1.82399 7.16434 2.03999C7.16434 2.31999 7.12034 2.57599 7.03234 2.80799C6.95234 3.03199 6.82834 3.22799 6.66034 3.39599C6.49234 3.55599 6.28434 3.67999 6.03634 3.76799C5.79634 3.85599 5.52034 3.89999 5.20834 3.89999C4.84834 3.89999 4.52034 3.83199 4.22434 3.69599C3.92834 3.55999 3.69234 3.35599 3.51634 3.08399C3.34034 2.81199 3.25234 2.47599 3.25234 2.07599C3.25234 1.57999 3.36834 1.17999 3.60034 0.875992C3.83234 0.571992 4.13234 0.351992 4.50034 0.215992C4.87634 0.0719917 5.27234 -8.34465e-06 5.68834 -8.34465e-06C6.30434 -8.34465e-06 6.84434 0.103992 7.30834 0.311992C7.78034 0.519992 8.17234 0.803992 8.48434 1.16399C8.80434 1.52399 9.04434 1.92799 9.20434 2.37599C9.36434 2.82399 9.44434 3.28799 9.44434 3.76799C9.44434 3.98399 9.43234 4.19599 9.40834 4.40399C9.38434 4.60399 9.34834 4.79999 9.30034 4.99199L9.22834 5.25599C9.00434 5.91199 8.62834 6.46399 8.10034 6.91199C7.58034 7.35999 6.94834 7.69999 6.20434 7.93199C5.46834 8.16399 4.65234 8.27999 3.75634 8.27999H3.50434ZM11.0163 8.63999V0.143992H12.0483V8.63999H11.0163Z" fill="black"/>
</svg>
