<svg width="9" height="7" viewBox="0 0 9 7" fill="none" xmlns="http://www.w3.org/2000/svg">
<path d="M4.24836 6.144C3.52836 6.144 2.90036 6.06 2.36436 5.892C1.83636 5.716 1.39636 5.472 1.04436 5.16C0.692359 4.848 0.428359 4.484 0.252359 4.068C0.0843594 3.652 0.000359401 3.204 0.000359401 2.724C0.000359401 2.148 0.100359 1.656 0.300359 1.248C0.500359 0.84 0.768359 0.532 1.10436 0.324C1.44836 0.108 1.83636 0 2.26836 0C2.58836 0 2.86436 0.0639999 3.09636 0.192C3.33636 0.312 3.52036 0.488 3.64836 0.72C3.78436 0.944 3.85236 1.212 3.85236 1.524C3.85236 1.844 3.78436 2.132 3.64836 2.388C3.51236 2.636 3.30836 2.832 3.03636 2.976C2.76436 3.112 2.41636 3.18 1.99236 3.18C1.59236 3.18 1.24436 3.088 0.948359 2.904C0.652359 2.72 0.424359 2.536 0.264359 2.352L0.552359 1.608C0.616359 1.696 0.704359 1.8 0.816359 1.92C0.936359 2.032 1.08836 2.132 1.27236 2.22C1.45636 2.3 1.67636 2.34 1.93236 2.34C2.25236 2.34 2.49236 2.272 2.65236 2.136C2.82036 2 2.90436 1.812 2.90436 1.572C2.90436 1.34 2.84036 1.164 2.71236 1.044C2.58436 0.916 2.41636 0.852 2.20836 0.852C1.83236 0.852 1.52836 1.008 1.29636 1.32C1.06436 1.632 0.948359 2.072 0.948359 2.64V2.748C0.948359 3.156 1.05636 3.548 1.27236 3.924C1.49636 4.3 1.84836 4.608 2.32836 4.848C2.81636 5.08 3.45636 5.196 4.24836 5.196C5.43236 5.196 6.31236 4.988 6.88836 4.572C7.46436 4.148 7.75236 3.484 7.75236 2.58C7.75236 2.284 7.70836 2.012 7.62036 1.764C7.53236 1.508 7.39636 1.3 7.21236 1.14C7.03636 0.98 6.80836 0.9 6.52836 0.9C6.34436 0.9 6.17236 0.964 6.01236 1.092C5.86036 1.212 5.78436 1.408 5.78436 1.68C5.78436 1.992 5.88836 2.252 6.09636 2.46C6.30436 2.66 6.57636 2.816 6.91236 2.928V3.792H3.20436V2.904H5.83236L5.72436 2.988C5.44436 2.852 5.22436 2.656 5.06436 2.4C4.91236 2.144 4.83636 1.848 4.83636 1.512C4.83636 1.272 4.89636 1.036 5.01636 0.804C5.13636 0.572 5.32436 0.38 5.58036 0.228C5.84436 0.0759999 6.17636 0 6.57636 0C6.99236 0 7.36036 0.112 7.68036 0.336C8.00836 0.56 8.26836 0.868 8.46036 1.26C8.65236 1.644 8.74836 2.088 8.74836 2.592C8.74836 3.192 8.64436 3.716 8.43636 4.164C8.23636 4.612 7.94036 4.984 7.54836 5.28C7.16436 5.568 6.69236 5.784 6.13236 5.928C5.58036 6.072 4.95236 6.144 4.24836 6.144Z" fill="black"/>
</svg>
