<?xml version="1.0" encoding="UTF-8"?>
<svg id="Layer_1" xmlns="http://www.w3.org/2000/svg" version="1.1" viewBox="0 0 1000 1000">
  <!-- Generator: Adobe Illustrator 29.4.0, SVG Export Plug-In . SVG Version: 2.1.0 Build 152)  -->
  <defs>
    <style>
      .st0 {
        fill: #fff;
      }
    </style>
  </defs>
  <path class="st0" d="M339.13,390.36v182.81h-37.2v-182.81h37.2Z"/>
  <path class="st0" d="M438.27,413.89c22.22,0,41.22,7.89,57,23.67,15.78,15.78,23.67,34.78,23.67,57s-7.89,41.22-23.67,57-34.78,23.67-57,23.67-41.22-7.89-57-23.67c-15.78-15.78-23.67-34.78-23.67-57s7.89-41.22,23.67-57c15.78-15.78,34.78-23.67,57-23.67ZM438.27,448.48c-12.88,0-23.86,4.53-32.91,13.58-8.96,9.06-13.44,20.03-13.44,32.91s4.48,23.72,13.44,32.77c9.05,9.06,20.03,13.58,32.91,13.58s23.71-4.53,32.77-13.58c9.05-9.05,13.58-19.98,13.58-32.77s-4.53-23.85-13.58-32.91c-9.06-9.05-19.98-13.58-32.77-13.58Z"/>
  <g>
    <path class="st0" d="M161.88,541.93c-1.22,65.48,90.95,65.48,89.91,0,10.53,0,21.06,0,31.59,0,3.7,100.92-156.91,101.39-153.09,0,5.37.06,10.8.1,16.28.09,5.15,0,10.26-.03,15.31-.09Z"/>
    <g>
      <path class="st0" d="M193.12,394.09c118.86-15.74,121.08,157.16-1.66,140.91-80.56-10.67-82.18-129.8,1.66-140.91ZM251.98,464.82c0-24.4-20.21-44.18-45.14-44.18s-45.14,19.78-45.14,44.18,20.21,44.18,45.14,44.18,45.14-19.78,45.14-44.18Z"/>
      <ellipse class="st0" cx="268.63" cy="395.42" rx="14.82" ry="14.51"/>
    </g>
  </g>
  <g>
    <path class="st0" d="M853.9,543.98c-1.89,2.47-9.82,12.45-24.39,20.21-30.39,16.19-61.32,7.63-69.45,5.1.35,16.6.7,33.2,1.05,49.8h-36.73v-75.13l25.65-21.17c.14.09.28.18.42.26.22.15.44.28.66.41.11.07.23.14.34.21.3.19.6.36.91.54.07.04.15.09.22.13.42.24.84.48,1.26.72,7.71,7.58,18.26,12.25,29.9,12.25,12.64,0,24.02-5.53,31.83-14.29,1.42-1.3,2.7-2.71,3.84-4.23.26-.34.5-.69.74-1.04,2.46-3.56,4.19-7.58,5.21-11.81,1.12-4.53,1.43-9.31.96-14,0-.05,0-.09-.01-.13-.38-5.48-1.85-9.62-3.23-12.5-7.95-16.56-29.67-25.67-47.04-21.29-4.31,1.09-7.65,2.83-9.85,4.18,0,0-9.37,5.35-23.16,19.63-.01.02-.29.31-.68.7-.22.22-.43.44-.65.66-7.05,7.04-23.19,23.71-23.19,23.71-7.46,8.92-18.56,20.9-33.68,33.13-17.01,13.77-27.13,22.1-42.89,27.35-5.94,1.98-43.16,14.38-73.53-6.81-16.26-11.35-23.06-27.09-25.15-32.1-5.85-14.03-4.91-25.13-5.18-44.95-.4-29.29-.58-52.74-.68-68.11h36.73c-.1,15.95-.14,36.85.04,61.43.21,29.98.54,38.2,7.22,45.26,11.64,12.32,34.21,12.3,48.33,7.05,10.92-4.06,21.86-13.14,30.27-20.12,3.71-3.07,7.64-6.6,9.15-7.98,4.94-4.46,10.16-9.5,18.89-18.19,29.82-29.7,44.91-44.67,53.78-50.08,12.25-7.48,31.58-19.28,56.72-16.9,25.3,2.39,49.7,18.51,62.29,42.74,15,28.85,10.1,63.2-6.92,85.35Z"/>
    <path class="st0" d="M645,415.42h36.96v51.06c-5.39,5.36-11.26,10.88-17.64,16.47-5.94,5.2-11.77,9.97-17.41,14.34-.64-27.29-1.27-54.58-1.91-81.87Z"/>
  </g>
</svg>